PathFileType	4	(X/Y/Z)	C:\Users\gl24\Desktop\Patient 3 Collaboration with Marleny\nms_results\Right\Marker Files\Patient3_NormalGait_1pt0_02_Right_01.trc.trc
DataRate	CameraRate	NumFrames	NumMarkers	Units	OrigDataRate	OrigDataStartFrame	OrigNumFrames
80.459770114943	80.459770114943	4	33	mm	80.459770114943	124	       141
Frame#	Time	L.Toe			L.Midfoot.Superior			Neck			R.Toe			R.Heel			L.Heel			R.Elbow			R.Shoulder			L.Shank.Inferior			L.Shoulder			L.Shank.Superior			R.Shank.Lateral			L.Patella			L.Thigh.Inferior			R.Wrist			R.Midfoot.Superior			L.Shank.Lateral			Sternum			L.Elbow			R.Midfoot.Lateral			L.Thigh.Superior			L.Wrist			R.Thigh.Superior			L.Thigh.Lateral			R.Shank.Inferior			L.Midfoot.Lateral			R.Shank.Superior			R.Thigh.Lateral			L.Asis			R.Thigh.Inferior			R.Patella			Sacral			R.Asis			
		X1	Y1	Z1	X2	Y2	Z2	X3	Y3	Z3	X4	Y4	Z4	X5	Y5	Z5	X6	Y6	Z6	X7	Y7	Z7	X8	Y8	Z8	X9	Y9	Z9	X10	Y10	Z10	X11	Y11	Z11	X12	Y12	Z12	X13	Y13	Z13	X14	Y14	Z14	X15	Y15	Z15	X16	Y16	Z16	X17	Y17	Z17	X18	Y18	Z18	X19	Y19	Z19	X20	Y20	Z20	X21	Y21	Z21	X22	Y22	Z22	X23	Y23	Z23	X24	Y24	Z24	X25	Y25	Z25	X26	Y26	Z26	X27	Y27	Z27	X28	Y28	Z28	X29	Y29	Z29	X30	Y30	Z30	X31	Y31	Z31	X32	Y32	Z32	X33	Y33	Z33	

124	1.918714285714	399.602880531605	36.794846761931	394.037802809236	300.886108140082	95.738200648712	399.964076178619	463.781704929179	1446.819988762349	473.251780869812	1001.234786495129	135.261444907428	579.445859973694	728.616300182305	31.978748855053	532.223836915822	123.189447452161	95.608956157759	436.405502369683	400.542145843087	1066.644647201391	729.611907263556	493.176046607612	1404.184703767984	642.767699130651	321.864022162872	241.362749567948	389.139015886830	547.525557035781	1414.289379308063	336.017371514081	399.381648721778	378.188814877791	368.862428259182	670.575746024484	343.453408611817	644.826555083407	478.185052481063	461.317602962933	387.148221694164	538.809526528586	580.799967478692	369.695600122600	444.378607337023	819.123462434421	771.429782188963	871.840985088895	136.208921026427	565.604457682828	295.381983092402	359.172912264453	324.672148486089	612.261275600023	1348.625716283924	499.902638880776	571.625066712761	1088.167599527414	189.352026443700	807.127662308665	48.065814613113	600.178906626613	585.904847454096	704.136981815123	356.071550224150	800.100714108379	964.260847277305	213.267539883006	661.058083780279	725.351332390855	614.154227130477	473.524755637801	651.044409945937	310.393452621619	780.590063573233	244.976060172575	581.962118378906	195.076904543059	61.666776197167	372.849477413705	737.051238419793	415.684536887528	604.070140163014	595.919347687842	649.635179533233	666.860038084650	595.140524166521	941.290211530621	351.182526362759	694.238528758984	621.446848608382	596.616407363607	731.778087963688	523.257238236909	587.225879458632	411.011849999692	971.825840283141	470.826257408376	571.959977046421	953.936115145392	612.203892003232	
125	1.931142857143	387.342725622109	36.868805966092	394.013956265572	290.970458797973	96.059558198488	399.594405641988	464.009727188079	1444.956190009215	475.414641141340	994.936953093307	124.178129453503	576.109892550643	719.030799986934	31.788974611536	531.702996594759	113.285522608079	101.047854884966	436.400579060301	402.308057057914	1064.107783215696	731.776620239842	493.307204493380	1402.123054237184	644.904151647076	315.484579217302	241.960622069894	389.458191335638	547.727139238970	1412.546372019387	338.084782162294	396.602594544226	376.997135721702	369.659631067824	671.905529465204	342.023745911827	645.352325606408	477.961819827069	458.796853064349	387.548349795899	539.272887968299	578.911732323140	369.967124574605	447.383492615286	816.849129933414	773.712862278972	865.773720963898	129.910379955159	563.380275082058	292.009144518107	360.679393193247	325.594461336510	612.677058667853	1347.076183688421	502.012536010546	570.460817714146	1085.978381140674	191.678994349662	798.425862609778	44.476692985707	598.949832870684	586.582438392258	702.254937812463	356.581746169803	798.235055596011	960.755982500845	215.095883963983	665.902636577417	725.278931817438	614.859983963966	473.744233882587	649.625932733546	311.784733198449	777.966871495888	241.041484524351	580.423254713229	184.190502708820	64.974965149388	372.851693875749	739.105360809872	412.681518465861	603.011706323002	600.613553133094	649.214181744295	666.892899431383	596.821275297792	939.360885002620	352.704046884828	698.697802267609	620.919973458361	596.856341303385	734.871199031603	521.834603550661	587.559455621192	412.891021374079	969.872327876226	472.916990453130	574.294815434252	952.516341641405	613.890549970076	
126	1.943571428571	375.061766123307	36.960123209251	394.024590406398	281.405673324886	96.357938808322	399.306979426359	464.191553582616	1443.208716967832	477.680688418512	987.812735685101	111.558710309250	573.189427150417	708.194780670532	32.065015320067	531.322457453407	103.941610631172	107.231666235319	436.526886407864	404.385769300411	1061.593863703832	734.001846232559	493.404846039882	1400.179481441602	647.137664582340	309.774169139406	242.685435545154	389.819267323470	547.869932371491	1411.003127035402	340.223363489073	394.629676865883	375.691526902189	370.507468210051	673.021946438315	340.693035980010	646.142259264923	478.836905457429	455.966670828118	387.977210753024	540.502716832507	577.008441061954	370.415945530999	450.991219303678	814.656494889294	776.054189418607	859.013435776714	123.065945766431	561.494625043180	289.444770255833	362.282688241142	326.683173075397	613.147615750143	1345.807311858404	504.190008908878	569.109550358952	1083.858476297041	194.299703716641	788.434079414248	40.823484785366	597.951725422124	587.821918573447	700.422831563553	357.223554109223	795.791559563580	956.608608576744	216.867754491869	671.181730783515	725.192341669136	615.781779625065	474.624715906362	648.084954114684	313.350377712516	774.903238904218	237.032727347209	579.163804311004	173.587453105615	68.803675628691	372.965520784349	741.030736894803	409.653749135437	602.196962992275	605.392290002246	648.902573281450	666.899945367272	598.819585963353	937.511705095777	354.232718588863	703.409532160006	620.324181948334	597.354236088097	738.089870008782	520.343407492593	588.003359714698	415.126181260897	968.059680442226	475.116132978797	577.118951252438	951.384697147931	615.517817203051	
127	1.956000000000	362.741255080250	37.014959919354	394.077448305426	272.231208422601	96.685787310234	399.120544720439	464.339293744945	1441.636383702161	480.046130182791	980.103955208681	98.447171422328	570.781729225123	696.714760835453	32.732162534838	531.113605340402	95.314461428872	114.331980760980	436.781953583762	406.780317788910	1059.170220089465	736.269151776572	493.526099648091	1398.403048199247	649.452731213402	304.851573009485	243.585459133509	390.205319316931	547.940741879186	1409.735677424500	342.408687731806	393.561329207446	374.283044673024	371.393608140111	673.859968846800	339.552908698827	647.220462584826	480.913283155753	452.819129109364	388.433634327482	542.602228483236	575.092915830689	371.010223699676	455.159108849222	812.604538664656	778.430558361199	851.802614650718	116.234256560252	560.031831738529	287.804127981000	364.018004485247	327.918431667471	613.686704161012	1344.868604702694	506.387888719873	567.593193642446	1081.879966033567	197.242706933269	777.698324527005	37.416162059493	597.238319065721	589.643910509171	698.678464756851	358.003884046140	792.757105985917	951.870593521672	218.575546988225	676.549950830464	725.128485525194	616.891960176513	476.217037335188	646.412677933963	315.084073021262	771.511607725956	233.219135852410	578.306899975938	163.360150183861	73.304187330722	373.190251820670	742.717818549212	406.771587405659	601.768378056653	610.063442149660	648.758993909198	667.053855389519	601.074577270634	935.790290250968	355.778215480477	708.079072683244	619.755830543021	598.122260498733	741.295044570128	518.900584638844	588.613111285002	417.636287062504	966.453909040448	477.392694050145	580.324196301677	950.614206472079	617.077336490240	
